<svg xmlns="http://www.w3.org/2000/svg" fill="currentColor" class="icon icon-tabler icons-tabler-filled icon-tabler-message-circle-2" viewBox="0 0 24 24"><path fill="none" d="M0 0h24v24H0z"/><path d="M5.821 4.91c3.898-2.765 9.469-2.539 13.073.536 3.667 3.127 4.168 8.238 1.152 11.897-2.842 3.447-7.965 4.583-12.231 2.805l-.232-.101-4.375.931-.075.013-.11.009-.113-.004-.044-.005-.11-.02-.105-.034-.1-.044-.076-.042-.108-.077-.081-.074-.073-.083-.053-.075-.065-.115-.042-.106-.031-.113-.013-.075-.009-.11.004-.113.005-.044.02-.11.022-.072 1.15-3.451-.022-.036C.969 12.45 1.97 7.805 5.59 5.079l.23-.168z"/></svg>