<svg xmlns="http://www.w3.org/2000/svg" fill="none" stroke="currentColor" stroke-linecap="round" stroke-linejoin="round" stroke-width="2" class="icon icon-tabler icons-tabler-outline icon-tabler-pool" viewBox="0 0 24 24"><path stroke="none" d="M0 0h24v24H0z"/><path d="M2 20a2.4 2.4 0 0 0 2 1 2.4 2.4 0 0 0 2-1 2.4 2.4 0 0 1 2-1 2.4 2.4 0 0 1 2 1 2.4 2.4 0 0 0 2 1 2.4 2.4 0 0 0 2-1 2.4 2.4 0 0 1 2-1 2.4 2.4 0 0 1 2 1 2.4 2.4 0 0 0 2 1 2.4 2.4 0 0 0 2-1M2 16a2.4 2.4 0 0 0 2 1 2.4 2.4 0 0 0 2-1 2.4 2.4 0 0 1 2-1 2.4 2.4 0 0 1 2 1 2.4 2.4 0 0 0 2 1 2.4 2.4 0 0 0 2-1 2.4 2.4 0 0 1 2-1 2.4 2.4 0 0 1 2 1 2.4 2.4 0 0 0 2 1 2.4 2.4 0 0 0 2-1M15 12V4.5a1.5 1.5 0 0 1 3 0M9 12V4.5a1.5 1.5 0 0 0-3 0M15 5H9M9 10h6"/></svg>